<?xml version="1.0" standalone="no"?>
<!DOCTYPE svg PUBLIC "-//W3C//DTD SVG 20010904//EN"
 "http://www.w3.org/TR/2001/REC-SVG-20010904/DTD/svg10.dtd">
<svg version="1.0" xmlns="http://www.w3.org/2000/svg"
 width="688.000000pt" height="688.000000pt" viewBox="0 0 688.000000 688.000000"
 preserveAspectRatio="xMidYMid meet">
<metadata>
Created by potrace 1.14, written by Peter Selinger 2001-2017
</metadata>
<g transform="translate(0.000000,688.000000) scale(0.100000,-0.100000)"
fill="#000000" stroke="none">
<path d="M3087 6124 c-1 -1 -40 -5 -87 -9 -47 -4 -92 -10 -100 -15 -8 -4 -21
-5 -29 -2 -9 3 -11 0 -6 -9 6 -11 5 -11 -4 -3 -13 12 -54 7 -47 -5 2 -3 -16
-7 -41 -8 -25 -1 -51 -8 -59 -14 -8 -7 -17 -9 -20 -6 -8 8 -227 -75 -244 -93
-3 -3 -29 -16 -57 -29 -29 -14 -53 -28 -53 -33 0 -4 -5 -8 -10 -8 -13 0 -109
-60 -130 -81 -8 -9 -23 -18 -33 -22 -11 -4 -15 -12 -11 -18 4 -8 3 -9 -5 -5
-6 4 -14 0 -17 -8 -3 -9 -10 -14 -14 -11 -5 3 -11 1 -15 -5 -3 -5 -24 -7 -48
-4 -83 12 -334 10 -437 -3 -157 -20 -251 -40 -395 -88 -339 -111 -629 -300
-817 -534 -207 -257 -343 -565 -391 -891 -15 -95 -16 -425 -3 -500 36 -198 54
-267 108 -410 85 -226 267 -502 408 -619 31 -26 254 -179 496 -341 241 -161
534 -357 649 -435 116 -78 530 -356 920 -617 391 -262 737 -494 770 -516 33
-22 62 -37 65 -33 3 4 48 36 100 71 52 35 99 70 103 77 4 7 15 13 22 13 8 0
15 4 15 9 0 5 9 11 20 14 14 4 18 11 14 24 -4 13 -3 15 4 4 8 -11 15 -9 40 9
17 13 29 27 26 31 -3 5 2 6 10 3 9 -3 16 -1 16 5 0 6 5 11 10 11 6 0 32 15 58
33 26 18 79 55 117 82 39 27 111 77 160 110 202 139 234 163 227 170 -4 5 -1
5 5 1 19 -11 83 42 76 62 -4 14 -3 14 5 3 9 -12 14 -12 36 3 14 9 26 21 26 26
0 6 3 9 8 8 15 -4 52 23 46 34 -4 7 -3 8 5 4 13 -8 74 38 63 48 -3 4 0 4 9 1
8 -3 26 4 39 15 13 12 40 31 60 43 19 11 40 26 47 32 36 30 43 35 53 35 5 0
10 3 10 8 0 4 10 12 23 17 12 6 21 16 20 23 -2 6 3 9 10 6 16 -6 59 30 49 41
-4 5 -2 5 5 1 7 -4 36 10 65 31 29 20 73 50 98 67 51 35 64 44 91 69 10 9 22
18 27 19 4 2 6 7 4 11 -1 5 2 6 8 2 10 -6 81 40 88 57 2 5 8 6 13 2 5 -3 9 -1
9 3 0 5 16 17 35 27 19 11 35 23 35 28 0 4 6 8 13 8 7 0 24 11 39 25 15 14 32
25 38 25 6 0 8 5 4 12 -4 7 -3 8 4 4 11 -6 86 43 104 69 5 7 8 7 8 0 0 -6 3
-6 8 0 4 6 40 32 80 58 39 26 72 52 72 57 0 6 3 9 8 8 11 -4 82 42 82 53 0 6
4 8 8 5 5 -3 18 3 28 12 10 10 34 27 52 37 17 11 32 23 32 27 0 4 5 8 11 8 10
0 66 43 131 100 9 8 24 21 33 28 8 7 12 18 9 24 -4 7 -2 8 4 4 11 -7 99 73 95
86 -2 4 6 10 17 13 11 4 20 12 20 18 0 7 9 18 20 25 11 7 20 16 20 21 0 5 14
24 30 42 17 17 29 38 26 46 -4 8 -1 11 5 8 13 -9 40 26 34 43 -3 7 -1 11 4 8
8 -5 66 76 62 88 -1 4 8 16 19 28 11 12 18 28 15 36 -2 7 -1 11 4 8 5 -3 17
14 28 39 10 25 21 45 26 45 4 0 7 6 7 13 0 6 11 36 25 65 14 31 20 52 13 52
-7 0 -5 5 4 13 8 6 24 44 36 82 39 135 41 145 29 145 -9 0 -9 2 -1 8 44 28 63
438 28 607 -4 17 -6 38 -6 48 0 9 -4 17 -9 17 -6 0 -8 4 -5 8 8 14 -21 124
-35 133 -12 7 -12 9 0 9 9 0 10 4 4 13 -6 6 -13 24 -17 39 -3 15 -11 40 -18
55 -6 15 -12 30 -13 33 -7 30 -31 80 -37 80 -4 0 -7 3 -6 8 4 10 -63 142 -71
142 -4 0 -8 7 -8 14 0 22 -46 85 -57 79 -5 -3 -6 -1 -2 6 4 6 1 18 -6 26 -29
32 -38 45 -38 52 0 10 -143 178 -198 232 -24 23 -48 38 -54 35 -6 -4 -8 -3 -5
3 8 12 -36 55 -133 127 -41 30 -84 62 -95 71 -54 41 -170 105 -182 101 -8 -3
-12 -2 -9 3 8 12 -80 55 -96 46 -7 -5 -9 -4 -5 1 10 10 -91 56 -106 47 -5 -3
-7 -1 -4 4 5 8 -62 35 -93 38 -3 0 -9 3 -15 6 -21 13 -148 40 -161 35 -9 -3
-12 -1 -9 4 4 6 -8 11 -27 12 -55 3 -63 4 -73 9 -6 4 -37 7 -70 9 -182 9 -343
-3 -495 -36 -95 -21 -101 -22 -150 -37 l-45 -13 -86 63 c-48 35 -90 63 -94 63
-5 0 -16 6 -24 14 -27 24 -193 106 -202 100 -5 -3 -9 -1 -9 4 0 12 -49 34 -61
27 -5 -4 -9 -2 -9 3 0 7 -151 63 -180 67 -3 1 -21 6 -40 13 -19 6 -46 13 -60
16 -14 3 -50 10 -80 16 -30 6 -77 13 -105 16 -27 2 -56 7 -63 9 -8 3 -10 0 -6
-8 6 -8 3 -8 -9 1 -12 10 -58 15 -162 16 -80 1 -146 1 -148 0z m-107 -120 c0
-8 -19 -13 -24 -6 -3 5 1 9 9 9 8 0 15 -2 15 -3z m-413 -49 c0 -8 -4 -12 -9
-9 -5 3 -6 10 -3 15 9 13 12 11 12 -6z m77 -113 c3 -5 -1 -9 -9 -9 -8 0 -12 4
-9 9 3 4 7 8 9 8 2 0 6 -4 9 -8z m326 2 c0 -8 -19 -13 -24 -6 -3 5 1 9 9 9 8
0 15 -2 15 -3z m315 -153 c3 -5 2 -12 -3 -15 -5 -3 -9 1 -9 9 0 17 3 19 12 6z
m480 0 c3 -5 2 -12 -3 -15 -5 -3 -9 1 -9 9 0 17 3 19 12 6z m1285 -7 c0 -8
-19 -13 -24 -6 -3 5 1 9 9 9 8 0 15 -2 15 -3z m-1846 -82 c3 -5 -1 -9 -9 -9
-8 0 -12 4 -9 9 3 4 7 8 9 8 2 0 6 -4 9 -8z m2416 2 c0 -8 -19 -13 -24 -6 -3
5 1 9 9 9 8 0 15 -2 15 -3z m-2813 -89 c0 -8 -4 -12 -9 -9 -5 3 -6 10 -3 15 9
13 12 11 12 -6z m160 0 c0 -8 -4 -12 -9 -9 -5 3 -6 10 -3 15 9 13 12 11 12 -6z
m2077 7 c3 -5 -1 -9 -9 -9 -8 0 -12 4 -9 9 3 4 7 8 9 8 2 0 6 -4 9 -8z m483
-157 c0 -8 -4 -12 -9 -9 -5 3 -6 10 -3 15 9 13 12 11 12 -6z m-2073 -3 c3 -5
-1 -9 -9 -9 -8 0 -12 4 -9 9 3 4 7 8 9 8 2 0 6 -4 9 -8z m1913 -7 c0 -8 -4
-12 -9 -9 -5 3 -6 10 -3 15 9 13 12 11 12 -6z m-537 -75 c0 -5 -5 -10 -11 -10
-5 0 -7 5 -4 10 3 6 8 10 11 10 2 0 4 -4 4 -10z m-1386 -78 c3 -5 -1 -9 -9 -9
-8 0 -12 4 -9 9 3 4 7 8 9 8 2 0 6 -4 9 -8z m1606 2 c0 -8 -19 -13 -24 -6 -3
5 1 9 9 9 8 0 15 -2 15 -3z m800 0 c0 -8 -19 -13 -24 -6 -3 5 1 9 9 9 8 0 15
-2 15 -3z m-485 -163 c3 -5 2 -12 -3 -15 -5 -3 -9 1 -9 9 0 17 3 19 12 6z
m165 3 c0 -8 -19 -13 -24 -6 -3 5 1 9 9 9 8 0 15 -2 15 -3z m720 -82 c0 -5 -7
-9 -15 -9 -8 0 -12 4 -9 9 3 4 9 8 15 8 5 0 9 -4 9 -8z m-1036 -80 c3 -5 -1
-9 -9 -9 -8 0 -12 4 -9 9 3 4 7 8 9 8 2 0 6 -4 9 -8z m486 2 c0 -8 -19 -13
-24 -6 -3 5 1 9 9 9 8 0 15 -2 15 -3z m320 -160 c0 -8 -19 -13 -24 -6 -3 5 1
9 9 9 8 0 15 -2 15 -3z m470 2 c0 -3 -4 -8 -10 -11 -5 -3 -10 -1 -10 4 0 6 5
11 10 11 6 0 10 -2 10 -4z m-645 -155 c3 -5 2 -12 -3 -15 -5 -3 -9 1 -9 9 0
17 3 19 12 6z m-625 -7 c0 -8 -19 -13 -24 -6 -3 5 1 9 9 9 8 0 15 -2 15 -3z
m465 -3 c3 -5 2 -12 -3 -15 -5 -3 -9 1 -9 9 0 17 3 19 12 6z m645 5 c0 -3 -4
-8 -10 -11 -5 -3 -10 -1 -10 4 0 6 5 11 10 11 6 0 10 -2 10 -4z m157 -11 c0
-8 -4 -12 -9 -9 -5 3 -6 10 -3 15 9 13 12 11 12 -6z m-401 -241 c1 -9 0 -13
-4 -10 -3 4 -7 14 -8 22 -1 9 0 13 4 10 3 -4 7 -14 8 -22z m-866 -70 c0 -8
-19 -13 -24 -6 -3 5 1 9 9 9 8 0 15 -2 15 -3z m480 0 c0 -8 -19 -13 -24 -6 -3
5 1 9 9 9 8 0 15 -2 15 -3z m-15 -153 c3 -5 2 -12 -3 -15 -5 -3 -9 1 -9 9 0
17 3 19 12 6z m162 -16 c0 -8 -4 -12 -9 -9 -5 3 -6 10 -3 15 9 13 12 11 12 -6z
m480 0 c0 -8 -4 -12 -9 -9 -5 3 -6 10 -3 15 9 13 12 11 12 -6z m163 11 c0 -3
-4 -8 -10 -11 -5 -3 -10 -1 -10 4 0 6 5 11 10 11 6 0 10 -2 10 -4z m-1440 -50
c0 -2 -8 -10 -17 -17 -16 -13 -17 -12 -4 4 13 16 21 21 21 13z m635 -115 c3
-5 2 -12 -3 -15 -5 -3 -9 1 -9 9 0 17 3 19 12 6z m479 1 c3 -5 -1 -9 -9 -9 -8
0 -12 4 -9 9 3 4 7 8 9 8 2 0 6 -4 9 -8z m-1160 -48 c3 -8 2 -12 -4 -9 -6 3
-10 10 -10 16 0 14 7 11 14 -7z m446 -28 c0 -2 -7 -7 -16 -10 -8 -3 -12 -2 -9
4 6 10 25 14 25 6z m-236 -84 c3 -5 -1 -9 -9 -9 -8 0 -12 4 -9 9 3 4 7 8 9 8
2 0 6 -4 9 -8z m1446 2 c0 -8 -19 -13 -24 -6 -3 5 1 9 9 9 8 0 15 -2 15 -3z
m-175 -153 c3 -5 2 -12 -3 -15 -5 -3 -9 1 -9 9 0 17 3 19 12 6z m-1435 -7 c0
-8 -19 -13 -24 -6 -3 5 1 9 9 9 8 0 15 -2 15 -3z m474 -2 c3 -5 -1 -9 -9 -9
-8 0 -12 4 -9 9 3 4 7 8 9 8 2 0 6 -4 9 -8z m483 -7 c0 -8 -4 -12 -9 -9 -5 3
-6 10 -3 15 9 13 12 11 12 -6z m318 6 c3 -5 2 -12 -3 -15 -5 -3 -9 1 -9 9 0
17 3 19 12 6z m160 -160 c3 -5 2 -12 -3 -15 -5 -3 -9 1 -9 9 0 17 3 19 12 6z
m-715 -75 c0 -2 -7 -7 -16 -10 -8 -3 -12 -2 -9 4 6 10 25 14 25 6z m-405 -75
c3 -5 2 -12 -3 -15 -5 -3 -9 1 -9 9 0 17 3 19 12 6z m-238 -86 c0 -8 -4 -15
-9 -15 -10 0 -11 14 -1 23 9 10 10 9 10 -8z m397 -83 c3 -5 -1 -9 -9 -9 -8 0
-12 4 -9 9 3 4 7 8 9 8 2 0 6 -4 9 -8z m486 4 c0 -3 -4 -8 -10 -11 -5 -3 -10
-1 -10 4 0 6 5 11 10 11 6 0 10 -2 10 -4z m317 -11 c0 -8 -4 -12 -9 -9 -5 3
-6 10 -3 15 9 13 12 11 12 -6z m-1593 -153 c3 -5 -1 -9 -9 -9 -8 0 -12 4 -9 9
3 4 7 8 9 8 2 0 6 -4 9 -8z m791 -151 c3 -5 2 -12 -3 -15 -5 -3 -9 1 -9 9 0
17 3 19 12 6z m-305 -7 c0 -8 -19 -13 -24 -6 -3 5 1 9 9 9 8 0 15 -2 15 -3z
m147 -9 c0 -8 -4 -12 -9 -9 -5 3 -6 10 -3 15 9 13 12 11 12 -6z m637 7 c3 -5
-1 -9 -9 -9 -8 0 -12 4 -9 9 3 4 7 8 9 8 2 0 6 -4 9 -8z m170 0 c3 -5 -1 -9
-9 -9 -8 0 -12 4 -9 9 3 4 7 8 9 8 2 0 6 -4 9 -8z m-1287 -157 c0 -8 -4 -12
-9 -9 -5 3 -6 10 -3 15 9 13 12 11 12 -6z m1127 -3 c3 -5 -1 -9 -9 -9 -8 0
-12 4 -9 9 3 4 7 8 9 8 2 0 6 -4 9 -8z m-1280 -160 c3 -5 -1 -9 -9 -9 -8 0
-12 4 -9 9 3 4 7 8 9 8 2 0 6 -4 9 -8z m631 -1 c3 -5 2 -12 -3 -15 -5 -3 -9 1
-9 9 0 17 3 19 12 6z m-145 -157 c0 -8 -19 -13 -24 -6 -3 5 1 9 9 9 8 0 15 -2
15 -3z m-970 -160 c0 -8 -19 -13 -24 -6 -3 5 1 9 9 9 8 0 15 -2 15 -3z m320 2
c0 -3 -4 -8 -10 -11 -5 -3 -10 -1 -10 4 0 6 5 11 10 11 6 0 10 -2 10 -4z m474
-4 c3 -5 -1 -9 -9 -9 -8 0 -12 4 -9 9 3 4 7 8 9 8 2 0 6 -4 9 -8z m-639 -151
c3 -5 2 -12 -3 -15 -5 -3 -9 1 -9 9 0 17 3 19 12 6z m-238 -86 c0 -8 -4 -12
-9 -9 -5 3 -6 10 -3 15 9 13 12 11 12 -6z m397 -83 c3 -5 -1 -9 -9 -9 -8 0
-12 4 -9 9 3 4 7 8 9 8 2 0 6 -4 9 -8z m-470 -160 c3 -5 -1 -9 -9 -9 -8 0 -12
4 -9 9 3 4 7 8 9 8 2 0 6 -4 9 -8z m401 -82 c-3 -5 -12 -10 -18 -10 -7 0 -6 4
3 10 19 12 23 12 15 0z m-640 -160 c3 -6 -1 -7 -9 -4 -18 7 -21 14 -7 14 6 0
13 -4 16 -10z m-10 -189 c3 -5 2 -12 -3 -15 -5 -3 -9 1 -9 9 0 17 3 19 12 6z"/>
</g>
</svg>
